<?xml version="1.0" encoding="UTF-8"?>
<svg version="1.1" xmlns="http://www.w3.org/2000/svg" width="1000" height="1000">
<path d="M0 0 C1.09363358 -0.0033284 2.18726715 -0.0066568 3.31404114 -0.01008606 C5.62284934 -0.01513474 7.9316648 -0.01749502 10.24047852 -0.01733398 C13.74052219 -0.01951319 17.24024667 -0.03767117 20.74023438 -0.05664062 C22.99348852 -0.05957657 25.24674414 -0.06156002 27.5 -0.0625 C28.53166794 -0.06968552 29.56333588 -0.07687103 30.62626648 -0.08427429 C36.87396751 -0.06500538 42.75009773 0.56539374 48.8948822 1.68836975 C52.14087826 2.26771106 55.36981334 2.5892448 58.65625 2.84375 C60.50512817 2.9984375 60.50512817 2.9984375 62.39135742 3.15625 C63.67115479 3.26324219 64.95095215 3.37023438 66.26953125 3.48046875 C88.73848579 5.46502702 110.36829509 10.55483282 132.08203125 16.54296875 C133.11972656 16.82140625 134.15742187 17.09984375 135.2265625 17.38671875 C142.62491297 19.43209086 149.55579815 22.09294002 156.58203125 25.16796875 C158.76232878 26.09927808 160.94333484 27.02893022 163.125 27.95703125 C166.46290336 29.38109845 169.80029883 30.80618292 173.13476562 32.23828125 C178.65133481 34.58714572 184.12704934 36.80240314 189.86230469 38.56030273 C192.1352821 39.36346014 193.71308593 40.66075479 195.58203125 42.16796875 C197.4189464 43.0697271 199.25643103 43.97035624 201.09765625 44.86328125 C205.37430666 47.10919514 209.43532806 49.70996592 213.53125 52.265625 C215.40204796 53.43217891 217.28619982 54.57803099 219.19140625 55.6875 C221.68359109 57.23086283 223.88108816 58.93166022 226.14453125 60.79296875 C229.01895208 63.13412598 231.90861257 65.42999774 234.8984375 67.62109375 C235.72396118 68.22703369 235.72396118 68.22703369 236.56616211 68.84521484 C238.14351918 69.99660805 239.72595584 71.14103262 241.30859375 72.28515625 C242.05882812 72.90648438 242.8090625 73.5278125 243.58203125 74.16796875 C243.58203125 74.82796875 243.58203125 75.48796875 243.58203125 76.16796875 C244.28328125 76.39484375 244.98453125 76.62171875 245.70703125 76.85546875 C251.78465062 79.63003412 255.39422871 84.1211298 259.58203125 89.16796875 C260.3709375 89.77769531 261.15984375 90.38742188 261.97265625 91.015625 C264.75552113 93.31107193 266.64488031 95.63303406 268.76953125 98.54296875 C269.92582031 100.11884766 269.92582031 100.11884766 271.10546875 101.7265625 C274.13444385 105.92267677 277.14821057 110.13022203 280.1315918 114.35888672 C281.94783505 116.92602289 283.79260968 119.42604889 285.78125 121.86328125 C288.0372578 124.75057973 289.16312922 127.79807643 290.58203125 131.16796875 C291.19433594 132.08449219 291.80664062 133.00101563 292.4375 133.9453125 C299.56957003 144.66290408 304.00491896 156.52408939 308.0390625 168.671875 C308.98134702 171.49575606 309.99744373 174.24004252 311.1875 176.96875 C314.83130326 185.32806337 316.60638962 194.30098948 318.58203125 203.16796875 C318.92874327 204.66167782 319.27645155 206.15515589 319.625 207.6484375 C319.98593037 209.21738967 320.34660917 210.78639974 320.70703125 212.35546875 C320.87775146 213.07927734 321.04847168 213.80308594 321.22436523 214.54882812 C323.6546832 225.26206651 323.76843083 235.91816746 323.76733398 246.8515625 C323.76950798 249.26710989 323.78768517 251.68218996 323.80664062 254.09765625 C323.85836367 267.77316021 323.08739525 281.09638426 318.70703125 294.16796875 C318.16617449 295.86881015 317.62844943 297.57065037 317.09375 299.2734375 C316.83384277 300.09763184 316.57393555 300.92182617 316.30615234 301.77099609 C315.23736142 305.30888863 314.37003992 308.88499549 313.51953125 312.48046875 C311.64105934 320.22133841 309.23311955 327.66101502 306.58203125 335.16796875 C306.14697266 336.40740234 306.14697266 336.40740234 305.703125 337.671875 C304.25692534 341.66217458 302.47758678 345.3768577 300.58203125 349.16796875 C299.94652189 350.74711323 299.32256451 352.33093118 298.70703125 353.91796875 C294.98035182 363.33348078 290.31299794 371.86457094 284.23046875 379.96875 C281.40842811 383.73435637 279.50626691 387.4312193 277.68359375 391.765625 C275.6900828 396.11317547 273.1011447 400.11051668 270.58203125 404.16796875 C269.83566406 405.4209375 269.83566406 405.4209375 269.07421875 406.69921875 C267.69419541 408.98239872 266.25767533 411.2042007 264.76953125 413.41796875 C263.98835937 414.58585938 263.98835937 414.58585938 263.19140625 415.77734375 C262.1442837 417.33277822 261.09243933 418.88504782 260.03515625 420.43359375 C257.05999715 424.81965304 254.3419036 429.24778358 251.85546875 433.9296875 C250.58203125 436.16796875 250.58203125 436.16796875 248.66796875 439.00390625 C246.51134396 442.27519104 244.64345107 445.6374592 242.83203125 449.10546875 C242.13546097 450.42450256 241.43884499 451.74351224 240.7421875 453.0625 C240.38785645 453.73619629 240.03352539 454.40989258 239.66845703 455.10400391 C237.87810431 458.50527175 236.07455615 461.89947129 234.26953125 465.29296875 C233.94436523 465.907771 233.61919922 466.52257324 233.28417969 467.15600586 C231.47735886 470.55622502 229.58788194 473.8816709 227.58203125 477.16796875 C227.15921875 477.895 226.73640625 478.62203125 226.30078125 479.37109375 C225.89859375 480.0465625 225.49640625 480.72203125 225.08203125 481.41796875 C224.67984375 482.10375 224.27765625 482.78953125 223.86328125 483.49609375 C222.58203125 485.16796875 222.58203125 485.16796875 219.58203125 486.16796875 C218.48238858 488.01237947 218.48238858 488.01237947 217.58203125 490.16796875 C215.31050092 494.10528798 212.94696641 497.86041479 209.95703125 501.29296875 C207.60191267 504.14390177 206.16994261 506.84779045 204.58203125 510.16796875 C204.12054687 510.76738281 203.6590625 511.36679687 203.18359375 511.984375 C200.00309608 516.32071207 197.90528187 521.33535075 195.58203125 526.16796875 C194.77765625 527.83859375 194.77765625 527.83859375 193.95703125 529.54296875 C188.58545227 543.70440423 187.53480965 556.882025 187.22265625 571.921875 C187.15871673 574.34833826 187.0935741 576.77477006 187.02734375 579.20117188 C186.92672049 582.95671511 186.83239628 586.71184121 186.75878906 590.46801758 C186.35408339 610.43393546 184.88454378 628.62363706 174.58203125 646.16796875 C174.14761719 646.91304687 173.71320312 647.658125 173.265625 648.42578125 C170.99582482 652.16846116 168.51781861 655.7344804 165.890625 659.234375 C164.35743162 661.49983984 163.04773301 663.87186309 161.70385742 666.25268555 C159.78565325 669.52761738 157.64831373 672.65245606 155.51953125 675.79296875 C152.76848684 679.86435097 150.08383667 683.93642842 147.58203125 688.16796875 C146.92203125 689.15796875 146.26203125 690.14796875 145.58203125 691.16796875 C144.92203125 691.16796875 144.26203125 691.16796875 143.58203125 691.16796875 C143.37578125 691.82796875 143.16953125 692.48796875 142.95703125 693.16796875 C141.09078873 697.23977061 138.60641598 700.85593873 135.58203125 704.16796875 C134.92203125 704.16796875 134.26203125 704.16796875 133.58203125 704.16796875 C133.35515625 704.88984375 133.12828125 705.61171875 132.89453125 706.35546875 C131.31867997 709.73229292 129.37326509 711.72563914 126.58203125 714.16796875 C125.92203125 714.16796875 125.26203125 714.16796875 124.58203125 714.16796875 C124.34226562 715.01101563 124.1025 715.8540625 123.85546875 716.72265625 C122.40720306 720.64097018 120.4921816 723.82043635 118.20703125 727.29296875 C117.62695312 728.20369141 117.62695312 728.20369141 117.03515625 729.1328125 C114.82345222 732.53943045 112.45280476 735.32082301 109.58203125 738.16796875 C108.57475578 739.83024848 107.57548195 741.49738996 106.58203125 743.16796875 C104.90451257 745.29099239 103.2139761 747.363676 101.45703125 749.41796875 C100.97419678 749.98644531 100.4913623 750.55492187 99.99389648 751.140625 C96.33241611 755.40423152 92.46482955 759.39912764 88.43359375 763.31640625 C86.45823192 765.21823314 86.45823192 765.21823314 84.51953125 767.79296875 C82.23474946 770.59366901 79.67477294 772.79470947 76.93359375 775.140625 C74.21554122 777.48392943 71.55270825 779.88198072 68.89453125 782.29296875 C68.00378906 783.09992187 67.11304688 783.906875 66.1953125 784.73828125 C64.43803265 786.37210496 62.72661815 788.05653739 61.0625 789.78515625 C58.67621307 792.07749487 56.44077775 793.53830116 53.58203125 795.16796875 C52.14394501 796.26545562 50.72832692 797.39278275 49.33203125 798.54296875 C44.55675274 802.41209501 39.71054124 806.17987604 34.83203125 809.91796875 C34.11112305 810.47274902 33.39021484 811.0275293 32.64746094 811.59912109 C11.69126179 827.62872418 11.69126179 827.62872418 0.58203125 827.23046875 C-3.65231015 826.53285695 -5.71279886 824.55154985 -8.234375 821.17578125 C-11.7308373 815.24448876 -11.70742275 808.60479179 -11.9765625 801.90234375 C-12.47197326 798.83342751 -13.46416444 797.52295421 -15.41796875 795.16796875 C-15.41796875 794.50796875 -15.41796875 793.84796875 -15.41796875 793.16796875 C-16.28421875 792.89984375 -17.15046875 792.63171875 -18.04296875 792.35546875 C-21.41796875 791.16796875 -21.41796875 791.16796875 -24.35546875 789.66796875 C-28.65400569 787.5625629 -32.5418266 786.20788667 -37.35546875 786.10546875 C-40.53178762 787.20745693 -41.56847915 788.12833876 -43.91796875 790.41796875 C-48.41110171 794.65906911 -53.3250494 796.20392344 -59.1484375 798.02734375 C-62.242033 799.10659093 -64.64895697 800.44831536 -67.41796875 802.16796875 C-69.55859375 803.01171875 -69.55859375 803.01171875 -71.66796875 803.66796875 C-72.45300781 803.91804687 -73.23804688 804.168125 -74.046875 804.42578125 C-74.82933594 804.67070313 -75.61179687 804.915625 -76.41796875 805.16796875 C-84.78723763 807.88993657 -93.19600637 810.66087931 -101.35986328 813.95043945 C-123.29028358 822.68579903 -156.70743408 820.29550224 -178.41796875 812.16796875 C-180.81356977 811.31315076 -183.20940922 810.45900069 -185.60546875 809.60546875 C-186.76820313 809.18265625 -187.9309375 808.75984375 -189.12890625 808.32421875 C-191.98011372 807.32189403 -194.82504111 806.43302089 -197.73046875 805.60546875 C-201.76494829 804.43759309 -205.50944656 802.90947349 -209.3125 801.1328125 C-226.07392533 793.45178828 -244.5795307 793.13325171 -262.34375 796.69140625 C-269.3062203 797.77072185 -276.38492445 797.91477916 -283.41796875 798.16796875 C-284.51367188 798.21050781 -285.609375 798.25304687 -286.73828125 798.296875 C-295.74033471 798.48494018 -302.55980011 796.70755057 -309.98046875 791.66796875 C-310.96370117 791.00474609 -310.96370117 791.00474609 -311.96679688 790.328125 C-317.53408327 786.40154738 -320.97048633 782.02868886 -324.41796875 776.16796875 C-325.65363573 774.36638707 -326.90362582 772.57454288 -328.16796875 770.79296875 C-328.7196875 770.00148438 -329.27140625 769.21 -329.83984375 768.39453125 C-331.36811555 766.1728556 -331.36811555 766.1728556 -333.04296875 764.23828125 C-339.96619436 753.81410633 -335.93758258 735.18514104 -334.015625 723.62109375 C-333.41796875 721.16796875 -333.41796875 721.16796875 -332.2890625 719.15234375 C-331.0590918 716.35043741 -331.37243519 715.03011686 -332.41796875 712.16796875 C-334.64383733 709.65289422 -334.64383733 709.65289422 -337.41796875 707.10546875 C-351.06575904 693.06092741 -358.51046447 668.6353139 -358.5859375 649.34375 C-358.54251492 647.61812756 -358.48793519 645.89271889 -358.41796875 644.16796875 C-358.3921875 642.976875 -358.36640625 641.78578125 -358.33984375 640.55859375 C-357.53080048 625.77516681 -352.68415779 612.74405034 -347.3203125 599.11328125 C-345.77146695 595.17476623 -344.42273826 591.20797832 -343.19213867 587.15917969 C-341.69485335 583.30807307 -339.03544799 580.31578693 -336.41796875 577.16796875 C-335.39123047 575.8840625 -335.39123047 575.8840625 -334.34375 574.57421875 C-330.61717766 569.94364369 -326.79707843 565.43589317 -322.79296875 561.04296875 C-312.29539278 549.4317369 -305.99271597 537.97223709 -301.578125 523 C-300.60276074 519.70458665 -299.4609669 516.50316135 -298.23046875 513.29296875 C-296.680851 509.15036512 -295.75065824 505.13809199 -294.9921875 500.7890625 C-294.09028196 496.67220114 -292.59720553 492.77525313 -291.125 488.83203125 C-290.39213576 486.07063117 -290.21047682 484.74787834 -291.41796875 482.16796875 C-294.74396808 481.05930231 -297.54372295 480.91724767 -301.04296875 480.73046875 C-305.85881733 480.41532119 -310.32686892 479.8941026 -314.9921875 478.69921875 C-319.36654098 477.74122829 -323.83492776 477.33194369 -328.28125 476.828125 C-331.59387413 476.13094757 -332.8614768 475.28562177 -335.41796875 473.16796875 C-336.84109375 472.51054688 -336.84109375 472.51054688 -338.29296875 471.83984375 C-342.01663478 469.84768242 -344.51936932 467.44216634 -347.41796875 464.41796875 C-347.94269775 463.87938232 -348.46742676 463.3407959 -349.00805664 462.78588867 C-350.48874368 461.2563903 -351.95581286 459.7151646 -353.41796875 458.16796875 C-354.05605469 457.49894531 -354.69414062 456.82992188 -355.3515625 456.140625 C-365.97132092 444.41751506 -369.71954718 430.46790399 -369.20703125 414.98046875 C-368.41579999 406.19924038 -363.88969429 399.81084668 -358.41796875 393.16796875 C-356.04336085 390.22856695 -353.95651298 387.62969326 -352.41796875 384.16796875 C-351.75796875 384.16796875 -351.09796875 384.16796875 -350.41796875 384.16796875 C-350.17046875 383.50796875 -349.92296875 382.84796875 -349.66796875 382.16796875 C-348.41796875 379.16796875 -348.41796875 379.16796875 -347.4296875 377.44140625 C-344.2041381 371.74098076 -343.6277734 366.65442919 -343.41796875 360.16796875 C-343.36640625 359.25273437 -343.31484375 358.3375 -343.26171875 357.39453125 C-343.06022878 351.26587811 -343.69876451 345.44149388 -344.73046875 339.41796875 C-344.8480957 338.72106934 -344.96572266 338.02416992 -345.08691406 337.30615234 C-346.00618058 332.34658016 -347.57451153 327.85114258 -349.41796875 323.16796875 C-354.26408281 309.18802655 -354.5495823 294.57896288 -348.21875 281.1484375 C-344.67192898 275.27810249 -340.41724218 271.07444753 -334.98046875 267.04296875 C-334.1596582 266.41841797 -334.1596582 266.41841797 -333.32226562 265.78125 C-329.77547254 263.10331629 -326.13228549 260.61025921 -322.41796875 258.16796875 C-321.34482422 257.42933594 -321.34482422 257.42933594 -320.25 256.67578125 C-316.18719881 253.8939019 -312.08545044 251.40721858 -307.73046875 249.10546875 C-302.41887316 246.26421021 -298.37880176 243.18326934 -294.16796875 238.85546875 C-292.41796875 237.16796875 -292.41796875 237.16796875 -290.41796875 237.16796875 C-290.16015625 236.65105469 -289.90234375 236.13414062 -289.63671875 235.6015625 C-288.68236686 233.69591754 -287.7230004 231.79278373 -286.76171875 229.890625 C-286.14708826 228.67059667 -285.53250612 227.45054399 -284.91796875 226.23046875 C-284.60988281 225.62267578 -284.30179687 225.01488281 -283.984375 224.38867188 C-282.2972339 221.03249205 -280.76655269 217.67307206 -279.41796875 214.16796875 C-278.96421875 213.13671875 -278.51046875 212.10546875 -278.04296875 211.04296875 C-274.29971166 202.34651287 -271.17896185 193.27168238 -268.5546875 184.17578125 C-266.51638773 177.18013511 -263.94829574 170.78925898 -260.7890625 164.2265625 C-259.56598519 161.49815927 -258.68719002 158.92413481 -257.91796875 156.04296875 C-256.32191987 150.25025015 -253.41366969 145.34029291 -250.41796875 140.16796875 C-249.56154671 138.6067038 -248.70723468 137.04427876 -247.85546875 135.48046875 C-244.12811993 128.81857229 -240.13089699 122.65242535 -235.3828125 116.66796875 C-232.3596406 112.8213882 -229.45324559 108.88851812 -226.53125 104.96484375 C-223.08155839 100.39926299 -219.63752889 96.05440572 -215.41796875 92.16796875 C-214.75796875 92.16796875 -214.09796875 92.16796875 -213.41796875 92.16796875 C-213.08732422 91.3790625 -213.08732422 91.3790625 -212.75 90.57421875 C-210.92519175 87.27779095 -208.54092724 84.52065718 -206.10546875 81.66796875 C-205.63173828 81.09949219 -205.15800781 80.53101563 -204.66992188 79.9453125 C-201.828258 76.5944038 -198.9062514 73.86780395 -195.41796875 71.16796875 C-194.69609375 70.26046875 -193.97421875 69.35296875 -193.23046875 68.41796875 C-192.63234375 67.67546875 -192.03421875 66.93296875 -191.41796875 66.16796875 C-190.75796875 66.16796875 -190.09796875 66.16796875 -189.41796875 66.16796875 C-189.08796875 65.17796875 -188.75796875 64.18796875 -188.41796875 63.16796875 C-187.10762144 62.2369325 -185.78552837 61.31980114 -184.421875 60.46875 C-181.86045574 58.80607434 -179.43342218 56.98659585 -176.98046875 55.16796875 C-173.84884478 52.86831573 -170.7718844 50.70662283 -167.35546875 48.85546875 C-164.21009684 47.33842371 -164.21009684 47.33842371 -162.41796875 44.16796875 C-160.68359375 43.359375 -160.68359375 43.359375 -158.66796875 42.73046875 C-154.79346917 41.39708241 -151.812949 39.47944466 -148.41796875 37.16796875 C-146.72925244 36.4351296 -145.03941801 35.70384477 -143.33203125 35.015625 C-141.12232715 34.03704175 -139.07471026 32.87341704 -136.98046875 31.66796875 C-132.92651559 29.38251865 -128.81515642 27.67454616 -124.41796875 26.16796875 C-122.61603342 25.53989998 -120.81420486 24.911504 -119.0144043 24.27734375 C-117.17551961 23.63012407 -115.3339014 22.990687 -113.4921875 22.3515625 C-110.31399387 21.25660654 -110.31399387 21.25660654 -107.41796875 19.16796875 C-104.63571111 18.32993934 -101.8321584 17.64674684 -99.01171875 16.94921875 C-96.21822842 16.24509192 -96.21822842 16.24509192 -93.41796875 14.16796875 C-91.56725647 13.6493723 -89.69589489 13.20277714 -87.81640625 12.80078125 C-86.69588867 12.55690674 -85.57537109 12.31303223 -84.42089844 12.06176758 C-82.62507324 11.68121216 -82.62507324 11.68121216 -80.79296875 11.29296875 C-71.3266673 9.31356835 -71.3266673 9.31356835 -61.94140625 6.9921875 C-48.79274526 3.46682187 -35.31145288 2.60662381 -21.78857422 1.4934082 C-19.5850798 1.28065592 -17.38689918 0.99872022 -15.20239258 0.64013672 C-10.12485758 0.00663226 -5.1121363 0.00546071 0 0 Z M-242.41796875 183.16796875 C-245.37019731 187.19373496 -246.07902536 190.93907019 -246.79296875 195.765625 C-247.41796875 198.16796875 -247.41796875 198.16796875 -248.86328125 200.02197266 C-250.54023771 202.33674138 -251.18662312 204.15635779 -251.91796875 206.90625 C-252.28921875 208.26073242 -252.28921875 208.26073242 -252.66796875 209.64257812 C-253.03921875 211.04733398 -253.03921875 211.04733398 -253.41796875 212.48046875 C-256.21106048 222.91819437 -256.21106048 222.91819437 -258.0234375 226.94921875 C-259.39832732 230.12263391 -260.09896737 232.96598173 -260.73046875 236.35546875 C-262.78032541 245.52699237 -265.91021708 254.65764165 -274.0859375 260.00390625 C-277.75196345 261.83384885 -281.55229378 263.0477784 -285.46484375 264.2421875 C-295.56634069 267.40892662 -305.05510443 272.72159417 -313.41796875 279.16796875 C-313.74796875 279.82796875 -314.07796875 280.48796875 -314.41796875 281.16796875 C-315.32546875 281.60109375 -316.23296875 282.03421875 -317.16796875 282.48046875 C-322.86979681 285.44103332 -325.96507441 289.28102234 -328.41796875 295.16796875 C-330.90677054 304.93437024 -331.21305573 322.91875964 -326.41796875 332.078125 C-324.92388073 335.20053551 -324.66801356 338.45385468 -324.29296875 341.85546875 C-324.20877686 342.59933838 -324.12458496 343.34320801 -324.0378418 344.10961914 C-323.2046065 352.14565443 -323.18629835 360.10087432 -323.41796875 368.16796875 C-323.4128125 369.12574219 -323.40765625 370.08351563 -323.40234375 371.0703125 C-323.6029143 377.41837033 -326.07872858 381.34350277 -329.65234375 386.5078125 C-331.24545262 388.90804954 -332.39080124 391.13805851 -333.48046875 393.79296875 C-334.80991183 397.01672558 -336.38094403 399.65098554 -338.41796875 402.48046875 C-344.27463257 410.98303653 -346.50870741 420.10070338 -344.9453125 430.23046875 C-343.2801118 438.84563883 -340.98014787 445.67515886 -333.8515625 451.1328125 C-320.22091451 459.71776123 -299.52023633 464.83660298 -283.41796875 462.16796875 C-277.20889746 459.2717912 -273.65002155 455.41862174 -269.42578125 450.15039062 C-268.06640625 448.5546875 -268.06640625 448.5546875 -265.41796875 446.16796875 C-262.58203125 446.3125 -262.58203125 446.3125 -260.41796875 447.16796875 C-260.81081173 453.41281752 -261.85537183 459.07899469 -263.60546875 465.078125 C-264.53164227 468.60025601 -265.17097572 472.14581321 -265.79296875 475.73046875 C-267.25274405 483.97489274 -269.47345432 491.93376832 -271.79492188 499.97070312 C-273.11774826 504.63584321 -274.30979406 509.33677389 -275.5234375 514.03125 C-276.41796875 517.16796875 -276.41796875 517.16796875 -277.41796875 519.60546875 C-278.46626724 522.29173364 -279.12617302 524.9817939 -279.76220703 527.79077148 C-281.39958831 535.01044483 -283.25462569 541.92295415 -287.41796875 548.16796875 C-288.07796875 548.49796875 -288.73796875 548.82796875 -289.41796875 549.16796875 C-290.09458582 551.06249655 -290.76830607 552.95811946 -291.42578125 554.859375 C-292.51834265 557.4015159 -293.90690923 559.37839251 -295.54296875 561.60546875 C-298.75047098 566.16266251 -299.24264582 569.64529661 -299.41796875 575.16796875 C-294.41040468 578.36724579 -289.91322646 578.61779026 -284.02734375 578.859375 C-281.41796875 579.16796875 -281.41796875 579.16796875 -279.41796875 581.16796875 C-271.89782559 583.96959071 -266.4941714 582.68604163 -259.31640625 579.8671875 C-256.67606106 578.89471468 -254.21740392 578.4536254 -251.41796875 578.16796875 C-250.40089844 578.05388672 -250.40089844 578.05388672 -249.36328125 577.9375 C-242.18617806 577.47806606 -237.03317163 580.20938936 -231.546875 584.69921875 C-223.17364404 590.47597992 -212.5645705 590.56524209 -202.81640625 590.2109375 C-199.96188892 590.1748459 -198.09705105 590.39363484 -195.41796875 591.16796875 C-186.58083108 592.18540236 -180.37844363 589.74159201 -172.41796875 586.16796875 C-168.73046875 584.73046875 -168.73046875 584.73046875 -165.41796875 585.16796875 C-162.79423022 587.56071369 -160.56913187 590.08787388 -158.3359375 592.84765625 C-156.62929218 595.23083565 -156.62929218 595.23083565 -154.41796875 596.16796875 C-150.67443132 596.46336107 -146.92179469 596.4460089 -143.16796875 596.48046875 C-141.61142578 596.52397461 -141.61142578 596.52397461 -140.0234375 596.56835938 C-133.61622524 596.67860919 -133.61622524 596.67860919 -127.69921875 594.53125 C-125.17537095 592.35568984 -125.17537095 592.35568984 -124.90234375 589.28515625 C-124.99 588.21523438 -125.07765625 587.1453125 -125.16796875 586.04296875 C-125.7151585 572.4240238 -121.77404055 565.4541974 -112.85546875 555.23046875 C-106.48560839 549.8405869 -101.61030292 548.43186747 -93.41796875 548.16796875 C-92.41507813 548.12800781 -91.4121875 548.08804687 -90.37890625 548.046875 C-76.62443621 547.76241516 -65.13992358 550.25483833 -52.546875 555.51171875 C-49.89874809 556.61533604 -47.29849119 557.52811358 -44.52734375 558.26953125 C-41.41796875 559.16796875 -41.41796875 559.16796875 -39.10546875 561.04296875 C-32.96126388 565.90117725 -25.28082972 567.59245628 -17.79296875 569.41796875 C-17.08881836 569.59328125 -16.38466797 569.76859375 -15.65917969 569.94921875 C-7.37647061 571.86626201 -0.13551732 571.18546716 8.08203125 569.41796875 C8.88511719 569.26070312 9.68820312 569.1034375 10.515625 568.94140625 C16.03778815 567.77790348 20.65576361 565.89418998 25.58203125 563.16796875 C28.98134512 561.4321489 32.39278021 559.80756695 35.89453125 558.29296875 C39.84805532 556.55129902 43.59927728 554.57520466 47.3515625 552.4375 C48.77691261 551.62622367 50.2111785 550.83029085 51.65625 550.0546875 C56.50195686 547.44821671 61.18297216 544.60702213 65.83203125 541.66796875 C66.42266357 541.30026367 67.0132959 540.93255859 67.62182617 540.55371094 C71.42067433 538.1225341 74.47602177 535.42392352 77.58203125 532.16796875 C79.58203125 530.50130208 81.58203125 528.83463542 83.58203125 527.16796875 C91.4073059 520.07405158 91.4073059 520.07405158 96.58203125 511.16796875 C100.03213922 509.44291476 103.8088809 509.67168051 107.58203125 510.16796875 C109.64453125 511.91796875 109.64453125 511.91796875 111.58203125 514.16796875 C118.90692542 519.23904933 126.97128117 519.2662588 135.58203125 518.16796875 C145.07638792 516.3347707 153.64355834 512.6897977 161.58203125 507.16796875 C162.84273437 506.33072266 162.84273437 506.33072266 164.12890625 505.4765625 C171.9370008 500.18835301 178.75950461 494.41824627 184.8515625 487.2109375 C186.03229622 485.81697873 187.23952126 484.44513812 188.46875 483.09375 C191.91230759 479.30367089 194.48252951 475.89184767 196.58203125 471.16796875 C197.56937665 469.49377437 198.5701523 467.82745023 199.58203125 466.16796875 C203.64099801 459.44863052 204.77788399 454.68651591 204.83203125 446.85546875 C204.85265625 446.12134766 204.87328125 445.38722656 204.89453125 444.63085938 C204.95405899 436.24488897 201.62103614 429.77644169 196.0859375 423.4609375 C193.14401053 420.55977626 190.71635008 418.753496 186.51953125 418.48046875 C180.52393841 418.91595945 175.03087742 421.25584813 169.48535156 423.43701172 C167.60003787 424.16105343 165.70328382 424.82945188 163.79296875 425.484375 C147.70758079 431.07770308 133.21172248 439.3587786 119.24707031 449.02050781 C116.67385431 450.79383849 114.07318946 452.52124539 111.45703125 454.23046875 C110.21566406 455.05224609 110.21566406 455.05224609 108.94921875 455.890625 C101.15929087 460.09410093 89.16350589 459.29463751 80.75390625 457.2265625 C74.96271625 455.11767025 70.36953663 453.09172575 66.58203125 448.16796875 C66.0921875 447.5853125 65.60234375 447.00265625 65.09765625 446.40234375 C63.25451528 443.68513593 62.40991492 441.12048305 61.45703125 437.98046875 C61.12445312 436.91441406 60.791875 435.84835937 60.44921875 434.75 C58.36051589 426.12233998 58.36644306 417.41670283 58.34179688 408.58618164 C58.33212973 406.50170367 58.30103244 404.41823078 58.26953125 402.33398438 C58.1984782 393.29084474 59.31539399 384.94833344 61.58203125 376.16796875 C61.84983398 375.05917358 61.84983398 375.05917358 62.12304688 373.92797852 C66.13917825 357.49617692 71.47725553 342.25549296 79.1328125 327.17578125 C80.8561143 323.59911714 82.28222793 319.96057251 83.625 316.2265625 C84.65686535 314.00699908 85.82048113 312.83777147 87.58203125 311.16796875 C90.7282084 305.63503652 90.71122626 301.21406366 89.95703125 294.98046875 C89.87557861 294.29122314 89.79412598 293.60197754 89.71020508 292.8918457 C89.09578717 288.65148951 88.00620715 285.67680037 85.58203125 282.16796875 C82.37095513 276.91892965 79.27383226 271.69348358 76.5703125 266.1640625 C71.56806761 256.06071412 66.01092381 245.80661 55.51953125 240.66796875 C52.62393972 239.92774909 52.62393972 239.92774909 50.14453125 241.04296875 C47.22490828 243.46411951 44.92352101 246.15048836 42.46875 249.03125 C38.63836618 253.3691795 34.96892096 257.37233885 29.39453125 259.23046875 C20.71069162 259.08811072 12.8741524 257.61010669 4.9296875 254.109375 C2.5437873 253.15263299 0.28850102 252.59930302 -2.23046875 252.10546875 C-5.84284665 251.38425845 -8.31653787 250.2083838 -11.41796875 248.16796875 C-15.78729178 246.0743348 -20.14883469 244.61613113 -24.79296875 243.23046875 C-31.41063533 241.24213315 -37.45563641 238.59216699 -43.66796875 235.60546875 C-47.86354778 233.81010656 -52.29266771 233.02641638 -56.734375 232.05078125 C-60.80983423 231.07405401 -64.79379231 229.91576026 -68.79296875 228.66796875 C-69.44644287 228.4663916 -70.09991699 228.26481445 -70.77319336 228.05712891 C-73.96634603 227.0451714 -76.98054661 225.91341138 -80.03515625 224.53125 C-87.72442816 221.43245566 -96.02821967 223.10950249 -103.9375 224.71875 C-108.33926363 225.51591979 -112.12789598 225.59799301 -116.41796875 224.16796875 C-117.84580413 224.07860042 -119.27737864 224.04286547 -120.70800781 224.04199219 C-121.57525482 224.0379689 -122.44250183 224.03394562 -123.33602905 224.02980042 C-124.2757254 224.02898972 -125.21542175 224.02817902 -126.18359375 224.02734375 C-128.19906849 224.0129687 -130.21453152 223.99687213 -132.22998047 223.97924805 C-133.80969635 223.96563736 -133.80969635 223.96563736 -135.42132568 223.95175171 C-175.4371561 223.53536681 -175.4371561 223.53536681 -193.43432617 215.03393555 C-195.61018648 214.0204271 -195.61018648 214.0204271 -198.85546875 213.29296875 C-203.05381244 211.96717601 -206.37611964 209.94236189 -210.0859375 207.60546875 C-212.30826662 206.16189912 -212.30826662 206.16189912 -214.40625 205.29296875 C-217.22681317 203.7156441 -219.15084584 201.46200113 -221.41796875 199.16796875 C-223.43345278 197.59222669 -225.47595933 196.0504869 -227.54296875 194.54296875 C-233.13149257 190.45958351 -233.13149257 190.45958351 -235.16015625 188.39453125 C-236.36380738 186.93524971 -236.36380738 186.93524971 -238.41796875 187.16796875 C-238.41796875 186.50796875 -238.41796875 185.84796875 -238.41796875 185.16796875 C-239.73796875 184.50796875 -241.05796875 183.84796875 -242.41796875 183.16796875 Z M-318.41796875 582.16796875 C-318.66546875 582.78671875 -318.91296875 583.40546875 -319.16796875 584.04296875 C-320.41796875 586.16796875 -320.41796875 586.16796875 -322.33203125 587.0234375 C-324.98814178 588.4808165 -325.68020158 589.92829066 -327.04296875 592.60546875 C-328.41286922 595.25365214 -329.75834246 597.67852931 -331.41796875 600.16796875 C-333.25071501 608.25532528 -334.82722579 616.66716367 -330.41796875 624.16796875 C-328.29146555 626.48374186 -326.11373968 628.53416819 -323.41796875 630.16796875 C-320.73002216 630.08651582 -319.75052831 629.50471672 -317.8671875 627.59765625 C-315.90580305 624.30929742 -315.63771921 621.09159194 -315.29296875 617.35546875 C-315.2144165 616.60789307 -315.13586426 615.86031738 -315.05493164 615.09008789 C-314.42499388 608.88051413 -313.99940272 602.66097563 -313.6484375 596.4296875 C-313.45612875 593.70802975 -313.12295092 591.10383125 -312.66796875 588.41796875 C-312.09988983 585.23673342 -312.09988983 585.23673342 -313.66796875 583.16796875 C-315.51616291 581.91989928 -315.51616291 581.91989928 -318.41796875 582.16796875 Z M-297.41796875 595.16796875 C-298.72204462 597.56746835 -299.57195432 599.59908119 -300.41796875 602.16796875 C-300.74796875 603.15667969 -301.07796875 604.14539063 -301.41796875 605.1640625 C-303.06511589 610.30534163 -304.59709211 615.47946498 -305.85546875 620.73046875 C-306.03980469 621.49488281 -306.22414063 622.25929688 -306.4140625 623.046875 C-306.41946254 625.97909443 -305.42371736 627.09010334 -303.41796875 629.16796875 C-298.72338788 630.97357678 -294.43064612 631.7463546 -289.41796875 631.16796875 C-286.58628772 628.25518945 -285.92086309 625.68822913 -285.35546875 621.73046875 C-284.79777585 617.91160024 -283.91746877 614.72256042 -282.41796875 611.16796875 C-281.32968169 606.37950568 -280.63632233 601.05325888 -281.41796875 596.16796875 C-282.98376429 594.24591075 -284.19959513 593.27715556 -286.41796875 592.16796875 C-291.04323294 591.75683416 -293.81874674 592.15240436 -297.41796875 595.16796875 Z M-267.16796875 599.66796875 C-272.06644327 607.62192737 -274.04757866 622.02937198 -272.41796875 631.16796875 C-270.34116547 634.93900628 -268.04262022 636.03726715 -264.04296875 637.41796875 C-263.10710937 637.753125 -262.17125 638.08828125 -261.20703125 638.43359375 C-258.42893629 639.16508094 -256.27202636 639.45581388 -253.41796875 639.16796875 C-246.89953915 633.39450253 -246.99260392 623.13143933 -246.48046875 614.98046875 C-246.39990234 614.11744141 -246.31933594 613.25441406 -246.23632812 612.36523438 C-245.96676386 608.01559866 -245.93758734 605.13032936 -248.734375 601.640625 C-252.65713971 598.02619987 -255.81256553 597.42145347 -260.98046875 596.60546875 C-264.59969596 596.87748685 -264.59969596 596.87748685 -267.16796875 599.66796875 Z M-235.41796875 606.16796875 C-236.46184382 608.6102425 -237.32787614 610.8972701 -238.10546875 613.41796875 C-238.31969482 614.09110107 -238.5339209 614.7642334 -238.75463867 615.45776367 C-241.39603779 623.99969927 -242.62788145 633.11840523 -240.85546875 641.98046875 C-237.06819179 647.7437163 -232.25209645 649.39978765 -225.79296875 650.85546875 C-224.70757812 651.06558594 -223.6221875 651.27570312 -222.50390625 651.4921875 C-219.41796875 652.16796875 -219.41796875 652.16796875 -216.70703125 653.25390625 C-213.4984263 654.53515806 -211.69589961 654.19232214 -208.41796875 653.16796875 C-203.9668591 649.52366546 -202.30749144 646.03727671 -201.10546875 640.54296875 C-200.94232178 639.8372876 -200.7791748 639.13160645 -200.61108398 638.40454102 C-198.74018554 629.79605852 -198.00297638 622.05188369 -202.41796875 614.16796875 C-205.41425966 609.74386785 -208.75683749 607.52432517 -213.54296875 605.35546875 C-214.20659424 605.05213623 -214.87021973 604.74880371 -215.55395508 604.4362793 C-222.79121126 601.31406792 -229.97093192 599.25269772 -235.41796875 606.16796875 Z M-3.41796875 604.16796875 C-4.81765165 610.61155399 -2.87668531 616.43637959 -0.49609375 622.37109375 C0.58449133 625.1743507 1.38981941 627.94902528 2.14453125 630.85546875 C3.16762642 634.75429088 4.37272806 638.47377144 5.8359375 642.2265625 C8.45163632 649.03285734 10.47615632 656.05600463 12.609375 663.0234375 C14.29424026 668.47049184 16.05919012 673.86077557 18.14453125 679.16796875 C19.26142645 682.06147963 19.98059658 684.87600166 20.58203125 687.91796875 C21.30487281 691.45386871 22.36833728 693.30861403 24.58203125 696.16796875 C26.20366872 701.37427851 26.80823038 705.73918971 26.58203125 711.16796875 C23.94203125 710.83796875 21.30203125 710.50796875 18.58203125 710.16796875 C18.72433933 711.58499388 18.87103871 713.00157835 19.01953125 714.41796875 C19.10074219 715.206875 19.18195313 715.99578125 19.265625 716.80859375 C19.51477929 719.09859595 19.51477929 719.09859595 20.1015625 720.984375 C22.08939517 730.01850882 20.83270386 740.43869727 19.39453125 749.48046875 C19.24322754 750.54624146 19.24322754 750.54624146 19.08886719 751.63354492 C18.45587614 755.16746056 17.76591878 756.98438317 15.203125 759.54296875 C13.0835458 760.85704468 11.15187033 761.96756574 8.83203125 762.85546875 C5.77654867 763.84316012 5.77654867 763.84316012 4.58203125 765.16796875 C4.9292129 768.70922157 5.47670548 771.86438272 6.64453125 775.23046875 C7.58203125 778.16796875 7.58203125 778.16796875 7.39453125 781.23046875 C7.32839069 784.36809408 7.32839069 784.36809408 9.70703125 787.04296875 C12.39128155 789.31330709 12.39128155 789.31330709 15.39453125 789.85546875 C20.0646141 788.84819598 22.93761121 786.13912244 26.58203125 783.16796875 C29.54520002 781.15301399 32.51500148 779.2084659 35.58203125 777.35546875 C38.62149289 775.13919464 40.63088913 772.913512 42.89453125 769.94921875 C44.68617424 768.05804004 46.63019221 766.82291536 48.81152344 765.42236328 C52.57312407 762.75729102 55.85436949 759.50732004 59.20703125 756.35546875 C60.33238281 755.32583008 60.33238281 755.32583008 61.48046875 754.27539062 C65.8099443 750.21842639 69.05869969 746.56267761 71.58203125 741.16796875 C71.43087809 734.97068925 67.81058018 730.34935914 63.58203125 726.16796875 C61.8131643 724.0115179 60.1321344 721.80020878 58.44140625 719.58203125 C57.24968189 718.03479249 56.0327578 716.50645246 54.78515625 715.00390625 C50.63542358 709.95445278 47.69882188 704.79253288 44.94140625 698.8671875 C43.72328162 696.21438081 43.72328162 696.21438081 42.125 694.35546875 C39.77024814 691.01708636 38.55982164 687.29361986 37.14453125 683.48046875 C36.52629291 681.85227393 35.90651921 680.2246612 35.28515625 678.59765625 C34.99060547 677.82518555 34.69605469 677.05271484 34.39257812 676.25683594 C32.93242778 672.49387017 31.28223435 668.82710151 29.58203125 665.16796875 C27.15002954 659.90482002 25.00262189 654.68473303 23.234375 649.16015625 C22.72346466 647.59989113 22.13551693 646.06481574 21.51953125 644.54296875 C20.58203125 642.16796875 20.58203125 642.16796875 19.64453125 638.79296875 C18.55741865 635.08399635 17.13350011 631.70531776 15.58203125 628.16796875 C14.10418767 624.44123276 12.76092789 620.80688533 11.6796875 616.9453125 C9.48443541 608.33583451 9.48443541 608.33583451 3.58203125 602.16796875 C-0.46419377 601.79816862 -0.46419377 601.79816862 -3.41796875 604.16796875 Z M-186.41796875 613.16796875 C-187.35512505 616.6558383 -187.35512505 616.6558383 -187.52734375 620.515625 C-187.58448547 621.20933701 -187.6416272 621.90304901 -187.70050049 622.61778259 C-187.8777246 624.82098083 -188.0237752 627.02488615 -188.16796875 629.23046875 C-188.33318088 631.43867577 -188.50472703 633.64630108 -188.67828369 635.85386658 C-188.83219187 637.85369902 -188.97069964 639.854699 -189.10839844 641.85571289 C-189.3510667 644.45214849 -189.73604965 646.6741424 -190.41796875 649.16796875 C-190.9686982 654.08584206 -190.9686982 654.08584206 -188.7421875 658.25 C-186.18680319 660.3587289 -184.04796424 661.30210488 -180.91796875 662.35546875 C-179.97953125 662.67902344 -179.04109375 663.00257813 -178.07421875 663.3359375 C-173.49882785 664.76911141 -169.69259313 665.32795382 -164.85546875 665.35546875 C-163.71980469 665.36964844 -162.58414063 665.38382813 -161.4140625 665.3984375 C-158.23552445 665.39968714 -158.23552445 665.39968714 -155.41796875 663.16796875 C-150.91974581 651.26000186 -152.00126317 636.6348697 -153.04296875 624.16796875 C-153.10000977 623.33821533 -153.15705078 622.50846191 -153.21582031 621.65356445 C-153.6365609 617.53601305 -154.13191639 615.5454399 -156.69140625 612.16796875 C-159.58752528 610.04359491 -160.89428417 609.48186019 -164.41796875 609.16796875 C-165.3615625 609.05050293 -165.3615625 609.05050293 -166.32421875 608.93066406 C-168.51993832 608.6672988 -170.71416536 608.47566748 -172.91796875 608.29296875 C-173.66433594 608.20789063 -174.41070312 608.1228125 -175.1796875 608.03515625 C-176.27216797 607.95007813 -176.27216797 607.95007813 -177.38671875 607.86328125 C-178.04091797 607.80156738 -178.69511719 607.73985352 -179.36914062 607.67626953 C-182.82180134 608.50487519 -184.26130494 610.43169586 -186.41796875 613.16796875 Z M-91.41796875 612.16796875 C-94.09961214 616.68103901 -95.05371569 620.86381758 -95.5859375 626.015625 C-95.67047684 626.74994247 -95.75501617 627.48425995 -95.84211731 628.24082947 C-96.10722054 630.5696556 -96.35622151 632.89989846 -96.60546875 635.23046875 C-96.78352368 636.79893986 -96.96255114 638.36730089 -97.14257812 639.93554688 C-97.31208039 641.44130717 -97.48072934 642.94716382 -97.6484375 644.453125 C-97.72652145 645.15220474 -97.80460541 645.85128448 -97.88505554 646.57154846 C-99.03315245 653.47690251 -99.03315245 653.47690251 -96.5546875 659.4921875 C-92.0164884 661.91670483 -88.25930442 661.40219634 -83.23046875 660.98046875 C-82.33521484 660.92310547 -81.43996094 660.86574219 -80.51757812 660.80664062 C-77.81423109 660.62511624 -75.11721685 660.40225139 -72.41796875 660.16796875 C-71.02578125 660.05859985 -71.02578125 660.05859985 -69.60546875 659.94702148 C-68.71472656 659.87040283 -67.82398438 659.79378418 -66.90625 659.71484375 C-65.70609253 659.61381348 -65.70609253 659.61381348 -64.48168945 659.51074219 C-62.21531594 659.26288298 -62.21531594 659.26288298 -59.79296875 657.60546875 C-56.22550389 651.28132649 -59.03687051 643.67572188 -60.56640625 637.04296875 C-61.16328936 634.32687681 -61.69264533 631.65667131 -62.14453125 628.91796875 C-62.26401123 628.20962891 -62.38349121 627.50128906 -62.5065918 626.77148438 C-62.83860433 624.76965091 -63.15792555 622.76572475 -63.4765625 620.76171875 C-64.78190653 615.7786627 -66.71351041 612.49179272 -70.796875 609.3203125 C-77.62028782 606.32045142 -86.00847412 606.89717912 -91.41796875 612.16796875 Z M-136.2487793 612.4440918 C-138.68179035 616.03137328 -139.35836468 620.09600155 -140.16796875 624.29296875 C-140.36986816 625.26274658 -140.57176758 626.23252441 -140.77978516 627.23168945 C-143.3369268 640.01427158 -145.57853708 653.17536192 -143.41796875 666.16796875 C-137.91210856 668.93186669 -133.60420303 669.6359875 -127.48046875 669.54296875 C-126.34061523 669.56037109 -126.34061523 669.56037109 -125.17773438 669.578125 C-118.42512309 669.5435258 -113.10537519 667.95957304 -107.41796875 664.16796875 C-106.39391274 661.37266676 -106.2834932 658.71226068 -106.25683594 655.75415039 C-106.24722839 654.88967789 -106.23762085 654.02520538 -106.22772217 653.13453674 C-106.22347229 652.20842087 -106.21922241 651.28230499 -106.21484375 650.328125 C-106.20629364 648.88946327 -106.20629364 648.88946327 -106.1975708 647.42173767 C-106.18813476 645.3951833 -106.18159237 643.36861368 -106.17773438 641.34204102 C-106.1680154 638.24533366 -106.13697329 635.14928644 -106.10546875 632.05273438 C-106.09893958 630.08203518 -106.09368877 628.11133126 -106.08984375 626.140625 C-106.07749695 625.21653336 -106.06515015 624.29244171 -106.0524292 623.34034729 C-106.06924212 618.47969376 -106.17162926 615.06614354 -109.41796875 611.16796875 C-113.54495556 608.41664421 -116.87882 608.76342335 -121.73046875 608.73046875 C-122.57287109 608.69759766 -123.41527344 608.66472656 -124.28320312 608.63085938 C-129.04885652 608.58987252 -132.65829897 608.89376362 -136.2487793 612.4440918 Z M-51.41796875 613.16796875 C-52.13006616 616.80757776 -51.75453384 618.56715096 -49.9453125 621.796875 C-47.74576678 626.65162681 -47.62415063 631.36032321 -47.24609375 636.62304688 C-46.74615959 642.35786851 -45.59835242 645.98758508 -41.41796875 650.16796875 C-37.24344615 649.95843673 -33.44602978 648.76976057 -29.85546875 646.66796875 C-26.3972151 640.65361458 -28.49629583 632.56368366 -29.23046875 625.91796875 C-29.30023926 625.24475586 -29.37000977 624.57154297 -29.44189453 623.87792969 C-30.09640887 618.61318811 -31.60289591 614.53306366 -34.8359375 610.3203125 C-40.00077333 606.55827159 -47.30605648 609.16149013 -51.41796875 613.16796875 Z M-337.41796875 650.16796875 C-338.70557825 653.62153132 -338.70557825 653.62153132 -339.29296875 657.48046875 C-339.53789062 658.75535156 -339.7828125 660.03023437 -340.03515625 661.34375 C-340.66693585 667.65509932 -339.84463429 672.79952607 -336.41796875 678.16796875 C-331.20725144 683.41976342 -331.20725144 683.41976342 -324.35546875 685.29296875 C-321.52898059 685.50444892 -321.52898059 685.50444892 -320.41796875 684.16796875 C-319.87921571 679.52640407 -320.15775464 675.39905472 -321.85546875 671.04296875 C-323.89126575 665.6836148 -323.87195473 660.28153649 -324.01171875 654.62109375 C-324.4402855 650.97827642 -325.18174361 649.04697358 -327.41796875 646.16796875 C-331.97159713 645.08947782 -334.24165627 647.03211885 -337.41796875 650.16796875 Z M-308.06835938 652.17431641 C-310.20161363 655.32557441 -309.88576613 658.69849229 -309.88671875 662.37890625 C-309.89433228 663.1840567 -309.9019458 663.98920715 -309.90979004 664.8187561 C-309.92059189 666.52171734 -309.92344378 668.22474482 -309.91894531 669.92773438 C-309.91797465 672.52717384 -309.95955451 675.12364444 -310.00390625 677.72265625 C-310.00911475 679.37890011 -310.01180142 681.0351542 -310.01171875 682.69140625 C-310.02811401 683.46551849 -310.04450928 684.23963074 -310.06140137 685.03720093 C-310.00987656 689.08318089 -309.61435737 690.92474217 -307.04101562 694.11181641 C-303.89311061 696.57939422 -301.43691462 698.22914893 -297.35546875 698.10546875 C-294.42636843 696.68816214 -293.20531423 694.8731773 -291.41796875 692.16796875 C-290.80573629 688.71210396 -290.80573629 688.71210396 -290.88671875 684.92578125 C-290.88097839 683.89588577 -290.88097839 683.89588577 -290.87512207 682.84518433 C-290.87241025 681.3979139 -290.87972048 679.95059385 -290.89648438 678.50341797 C-290.9178437 676.30583421 -290.89669738 674.11154323 -290.87109375 671.9140625 C-290.87373844 670.50129496 -290.87886636 669.08852944 -290.88671875 667.67578125 C-290.89123047 666.4036377 -290.89574219 665.13149414 -290.90039062 663.82080078 C-291.54227277 659.29068729 -292.86125981 656.93988168 -295.41796875 653.16796875 C-299.18371423 650.88870175 -304.10110175 649.75522825 -308.06835938 652.17431641 Z M-276.35546875 658.48046875 C-282.49260433 666.47734239 -281.22328374 680.4417583 -280.07421875 690.0390625 C-278.89639666 696.6446814 -276.84411379 701.91504426 -271.41796875 706.16796875 C-267.02771784 708.12345169 -264.24455828 708.42543106 -259.60546875 706.98046875 C-254.88012955 704.32547381 -254.88012955 704.32547381 -252.6875 699.59375 C-250.98762507 688.01426011 -249.77639503 675.47601347 -253.41796875 664.16796875 C-257.30297256 659.43890162 -263.8102637 657.27256368 -269.66796875 656.10546875 C-273.5498152 655.79169865 -273.5498152 655.79169865 -276.35546875 658.48046875 Z M-45.41796875 668.16796875 C-46.35140366 670.96827348 -46.52494405 672.56573699 -46.48046875 675.44921875 C-46.47217041 676.28670654 -46.46387207 677.12419434 -46.45532227 677.98706055 C-46.44299561 678.87176025 -46.43066895 679.75645996 -46.41796875 680.66796875 C-46.36029133 687.29730468 -46.46676826 693.77757478 -47.296875 700.3671875 C-47.33683594 700.96144531 -47.37679688 701.55570313 -47.41796875 702.16796875 C-46.34047466 703.45164938 -46.34047466 703.45164938 -43.79296875 703.48046875 C-39.58802077 703.09112172 -36.90111687 701.35555568 -33.41796875 699.16796875 C-31.90114837 698.32735326 -30.38014024 697.49425884 -28.85546875 696.66796875 C-21.78985443 692.9085316 -21.78985443 692.9085316 -16.41796875 687.16796875 C-14.92951645 678.73340571 -22.77795902 668.33878792 -26.41796875 661.16796875 C-33.60422068 660.91493171 -40.25865051 663.00865051 -45.41796875 668.16796875 Z M-236.41796875 666.16796875 C-241.89207646 672.77465046 -240.71635697 683.59003125 -240.85546875 691.73046875 C-240.90123047 692.82810547 -240.94699219 693.92574219 -240.99414062 695.05664062 C-241.06624468 700.25753773 -241.06818849 704.15695695 -237.765625 708.35546875 C-234.87535013 711.15092449 -232.46699448 712.17842307 -228.41796875 712.60546875 C-226.93296875 712.78916016 -226.93296875 712.78916016 -225.41796875 712.9765625 C-219.47262629 713.65095173 -219.47262629 713.65095173 -214.16796875 711.60546875 C-209.03296984 704.45314884 -209.19305576 693.70585031 -208.41796875 685.16796875 C-208.30710937 683.99234375 -208.19625 682.81671875 -208.08203125 681.60546875 C-207.73451398 675.24125195 -207.73451398 675.24125195 -210.41796875 669.66796875 C-213.9053412 666.85962796 -218.16349601 665.7735149 -222.41796875 664.60546875 C-223.10632813 664.41210938 -223.7946875 664.21875 -224.50390625 664.01953125 C-229.47651415 662.84782479 -232.18097431 663.36863909 -236.41796875 666.16796875 Z M-193.41796875 676.16796875 C-197.22851043 683.55089326 -197.28567273 691.0123083 -197.41796875 699.16796875 C-197.44375 700.39515625 -197.46953125 701.62234375 -197.49609375 702.88671875 C-197.33478306 710.05701527 -197.33478306 710.05701527 -193.60546875 715.91796875 C-188.69091992 719.27473625 -183.18443847 719.13215217 -177.41796875 719.16796875 C-176.39058594 719.20535156 -175.36320312 719.24273438 -174.3046875 719.28125 C-168.52428893 719.57721323 -168.52428893 719.57721323 -163.41796875 717.16796875 C-162.8169124 714.8896283 -162.8169124 714.8896283 -162.6875 712.22265625 C-162.60693359 711.2275 -162.52636719 710.23234375 -162.44335938 709.20703125 C-162.37310547 708.16289063 -162.30285156 707.11875 -162.23046875 706.04296875 C-162.10768555 704.5115625 -162.10768555 704.5115625 -161.98242188 702.94921875 C-160.90491167 692.01405239 -160.90491167 692.01405239 -162.60546875 681.29296875 C-162.82589844 680.55304687 -163.04632813 679.813125 -163.2734375 679.05078125 C-164.89344906 676.3857793 -166.45813277 676.01302952 -169.41796875 675.16796875 C-172.07237812 674.75451518 -172.07237812 674.75451518 -174.79296875 674.60546875 C-178.04226647 674.37431066 -181.02262165 674.04902064 -184.23046875 673.41796875 C-188.32186631 673.09707482 -190.10493733 673.75849135 -193.41796875 676.16796875 Z M-145.02734375 680.4453125 C-149.93821542 686.52872376 -148.8398472 699.70041244 -149.29296875 707.23046875 C-149.36660645 708.24206055 -149.44024414 709.25365234 -149.51611328 710.29589844 C-149.91944103 715.90282431 -149.91944103 715.90282431 -147.55078125 720.7890625 C-141.26398329 724.85360404 -133.11930996 723.6436807 -125.98046875 722.35546875 C-122.33952229 721.5301095 -119.4123573 720.48620505 -116.41796875 718.16796875 C-113.97044593 713.27292312 -114.74726607 706.0384365 -114.52197266 700.59082031 C-114.45530154 699.03766492 -114.3802158 697.48483435 -114.29443359 695.93261719 C-114.1846616 693.90814143 -114.1129081 691.88171169 -114.04296875 689.85546875 C-113.99398437 688.68371094 -113.945 687.51195312 -113.89453125 686.3046875 C-114.58765112 682.1511408 -116.1900056 680.78086155 -119.41796875 678.16796875 C-126.63285309 673.30416688 -138.47419729 675.24415014 -145.02734375 680.4453125 Z M-84.48046875 674.79296875 C-85.37830078 674.86386719 -86.27613281 674.93476562 -87.20117188 675.0078125 C-91.00382582 675.38666427 -93.71488921 675.71652905 -96.9609375 677.80078125 C-98.92931263 680.9987312 -99.26082043 683.69331558 -99.66796875 687.41796875 C-99.74313721 688.08892578 -99.81830566 688.75988281 -99.89575195 689.45117188 C-100.38576482 694.07017315 -100.66626411 698.53312204 -100.41796875 703.16796875 C-100.37671875 704.38484375 -100.33546875 705.60171875 -100.29296875 706.85546875 C-99.3602337 710.38653716 -98.22639764 711.96762247 -95.36621094 714.21655273 C-91.40202559 716.15244626 -87.30192075 715.09645389 -83.10546875 714.35546875 C-82.16936768 714.20746826 -81.2332666 714.05946777 -80.26879883 713.90698242 C-73.67427917 712.73196732 -68.30501352 710.96192695 -63.41796875 706.16796875 C-63.80588113 702.36642747 -64.28834271 699.43240586 -65.98046875 695.98046875 C-67.98674811 691.73641625 -67.55841182 687.53733157 -67.328125 682.9375 C-67.42421173 679.97552225 -67.64862366 678.535846 -69.41796875 676.16796875 C-74.06244922 673.1685978 -79.24706961 674.24208463 -84.48046875 674.79296875 Z M-312.41796875 721.16796875 C-316.9978112 733.46744253 -314.78245437 747.75675469 -310.04296875 759.60546875 C-308.15132294 762.58844868 -305.97362283 764.7311823 -303.41796875 767.16796875 C-302.45422001 768.37198726 -301.49612818 769.58054996 -300.54296875 770.79296875 C-296.61615138 775.32163502 -293.17603708 776.92410468 -287.28125 777.4453125 C-278.38015627 777.69011706 -270.70652139 776.02416049 -262.234375 773.5234375 C-251.75106817 770.76884459 -238.25250447 770.90508821 -228.04296875 774.54296875 C-227.28757812 774.80722656 -226.5321875 775.07148437 -225.75390625 775.34375 C-224.98304688 775.61574219 -224.2121875 775.88773438 -223.41796875 776.16796875 C-221.83542241 776.69118847 -220.25210185 777.21207303 -218.66796875 777.73046875 C-216.36487589 778.49287191 -214.15235981 779.28085255 -211.91796875 780.23046875 C-209.58266991 781.10620582 -207.41870951 781.61051805 -204.98046875 782.10546875 C-201.06358411 782.93007604 -197.99265958 784.3441469 -194.41796875 786.16796875 C-187.38649525 788.61833073 -180.09831201 790.36739627 -172.8984375 792.25390625 C-170.93962357 792.76834223 -168.98237593 793.28916479 -167.03125 793.83203125 C-157.9273471 796.30652007 -148.54211742 796.36264211 -139.16796875 796.35546875 C-138.07129883 796.35466309 -136.97462891 796.35385742 -135.84472656 796.35302734 C-126.01976864 796.27892606 -116.61310568 795.9007908 -107.41796875 792.16796875 C-105.54914898 791.7047799 -103.67349359 791.26857596 -101.79296875 790.85546875 C-95.58292562 789.34677116 -90.15160626 786.93622722 -84.41796875 784.16796875 C-82.0478034 783.15320809 -79.67392715 782.14930441 -77.29296875 781.16015625 C-75.25622024 780.08237683 -74.01622109 778.8097702 -72.41796875 777.16796875 C-71.44859375 776.69359375 -70.47921875 776.21921875 -69.48046875 775.73046875 C-64.00222222 772.93544501 -60.88999183 768.75466917 -58.41796875 763.16796875 C-57.79678929 759.46162102 -57.79678929 759.46162102 -57.8515625 755.58984375 C-57.84226463 754.54996307 -57.84226463 754.54996307 -57.83277893 753.48907471 C-57.82572715 752.03700148 -57.82877302 750.58484661 -57.84155273 749.1328125 C-57.85552721 746.90866456 -57.82116447 744.68864408 -57.78320312 742.46484375 C-57.78225276 741.04817606 -57.78410632 739.63150309 -57.7890625 738.21484375 C-57.7883374 736.93448242 -57.7876123 735.65412109 -57.78686523 734.33496094 C-58.10297156 731.00804542 -58.10297156 731.00804542 -60.7890625 729.21142578 C-64.1094374 727.89351323 -65.58713565 728.26804365 -68.98046875 729.29296875 C-70.03878906 729.59460938 -71.09710938 729.89625 -72.1875 730.20703125 C-73.25355469 730.52414062 -74.31960938 730.84125 -75.41796875 731.16796875 C-108.10860428 739.92675878 -141.4693816 740.48653711 -175.10546875 738.35546875 C-176.84908691 738.25057129 -176.84908691 738.25057129 -178.62792969 738.14355469 C-185.14632718 737.66862936 -191.16822624 736.60356471 -197.47949219 734.92749023 C-208.48713588 732.08229419 -219.14560377 731.99521028 -230.42456055 732.35986328 C-240.14770616 732.65230603 -248.24383294 731.51406915 -257.41796875 728.16796875 C-263.64032882 726.32650114 -267.09630703 726.06074818 -273.41796875 728.16796875 C-279.34449462 728.79181358 -281.64973062 727.56075357 -286.41796875 724.16796875 C-299.81638231 716.41496172 -299.81638231 716.41496172 -312.41796875 721.16796875 Z " fill="#000000" transform="translate(551.41796875,52.83203125)"/>
<path d="M0 0 C2.09948805 -0.00219408 4.19845525 -0.02044832 6.29785156 -0.03930664 C14.11440122 -0.07241102 21.4799578 0.40369818 29.10253906 2.18530273 C29.78703125 2.33668701 30.47152344 2.48807129 31.17675781 2.64404297 C42.1240884 5.16221115 52.23399948 7.90262949 60.10253906 16.18530273 C60.97394531 17.0219043 61.84535156 17.85850586 62.74316406 18.72045898 C63.60425781 19.55448242 64.46535156 20.38850586 65.35253906 21.24780273 C66.22394531 22.0844043 67.09535156 22.92100586 67.99316406 23.78295898 C70.0838355 26.16400146 70.44388502 27.22794608 71.10253906 30.18530273 C72.09253906 30.51530273 73.08253906 30.84530273 74.10253906 31.18530273 C82.51678739 40.33729321 86.85566896 52.87706486 87.10253906 65.18530273 C87.14121094 66.35319336 87.17988281 67.52108398 87.21972656 68.72436523 C87.44535178 81.43458559 87.5704052 95.34649602 82.08691406 107.04858398 C81.11203391 109.16469289 80.52036122 111.18988474 79.91503906 113.43530273 C75.82118832 125.76017614 66.51005941 135.63182333 57.57617188 144.69018555 C56.17146458 146.11537234 54.79249904 147.56579549 53.41503906 149.01733398 C50.76938568 151.49763403 48.51182906 152.10052864 45.10253906 153.18530273 C44.77253906 154.17530273 44.44253906 155.16530273 44.10253906 156.18530273 C42.32519531 157.06420898 42.32519531 157.06420898 40.16503906 157.74780273 C37.37403679 158.64436789 36.22479261 159.06304918 34.10253906 161.18530273 C18.30564071 164.39310202 -2.76375123 163.50318525 -17.89746094 158.18530273 C-20.06185071 157.51128061 -22.22867386 156.84503866 -24.39746094 156.18530273 C-25.49703125 155.84370117 -26.59660156 155.50209961 -27.72949219 155.15014648 C-29.67829982 154.55661321 -31.63312254 153.98195778 -33.59667969 153.43920898 C-40.81137591 151.43449747 -47.26657633 148.41334556 -53.64746094 144.49780273 C-55.88897757 143.06015666 -55.88897757 143.06015666 -58.64746094 142.43530273 C-63.46316055 140.58311057 -66.97707431 137.48800787 -70.89746094 134.18530273 C-71.74050781 133.48920898 -72.58355469 132.79311523 -73.45214844 132.07592773 C-85.65981217 121.61221596 -91.32549916 109.8275312 -95.02246094 94.43530273 C-95.2810791 93.37633789 -95.53969727 92.31737305 -95.80615234 91.22631836 C-99.6887819 75.04000092 -103.08903207 57.51371039 -94.20214844 42.27905273 C-92.22639688 39.75137058 -90.14635887 37.47270919 -87.89746094 35.18530273 C-87.06214844 34.27522461 -86.22683594 33.36514648 -85.36621094 32.42749023 C-80.94433851 27.75255884 -78.03051861 25.20069846 -71.89746094 23.18530273 C-71.56746094 22.19530273 -71.23746094 21.20530273 -70.89746094 20.18530273 C-59.23870037 11.49736708 -45.85939072 6.90126638 -31.81542969 3.93139648 C-28.9948608 3.33374145 -28.9948608 3.33374145 -27.01196289 2.17700195 C-19.24115719 -1.46749785 -8.42625692 -0.000983 0 0 Z " fill="#000000" transform="translate(487.8974609375,367.814697265625)"/>
<path d="M0 0 C7.03865306 -0.23665753 12.51368614 0.40010161 19.015625 3.1171875 C21.56138933 4.174718 24.07291958 4.95246876 26.7265625 5.69140625 C31.57281745 7.11317821 36.05378731 9.00691937 40.6015625 11.19140625 C41.42785156 11.58457031 42.25414062 11.97773438 43.10546875 12.3828125 C54.51945951 17.94168739 54.51945951 17.94168739 58.6015625 21.19140625 C58.6015625 21.85140625 58.6015625 22.51140625 58.6015625 23.19140625 C59.4265625 23.39765625 60.2515625 23.60390625 61.1015625 23.81640625 C64.83101048 25.28154653 67.3933933 27.08320296 70.5078125 29.55078125 C71.90998903 30.64950167 73.34937157 31.70223357 74.8203125 32.70703125 C75.531875 33.196875 76.2434375 33.68671875 76.9765625 34.19140625 C77.62367188 34.62453125 78.27078125 35.05765625 78.9375 35.50390625 C82.81968029 39.44076514 82.8664798 44.63214231 82.93164062 49.86401367 C82.82603786 64.5970654 80.1775937 81.2534508 69.47265625 92.41015625 C68.54646484 93.291875 68.54646484 93.291875 67.6015625 94.19140625 C67.12589844 95.21041016 67.12589844 95.21041016 66.640625 96.25 C63.96803688 101.2435199 56.67333466 103.9585152 51.4765625 105.62890625 C47.22953565 107.04458187 44.45478135 109.69717377 41.265625 112.765625 C39.6015625 114.19140625 39.6015625 114.19140625 37.6015625 114.19140625 C37.1065625 115.67640625 37.1065625 115.67640625 36.6015625 117.19140625 C35.078125 118.5859375 35.078125 118.5859375 33.2265625 120.00390625 C29.87675613 122.77054795 28.46346611 125.23486108 26.6015625 129.19140625 C25.46182548 130.71196886 24.29229246 132.21043587 23.1015625 133.69140625 C21.00291185 136.30374336 19.463038 138.47378312 17.9765625 141.50390625 C16.29115873 144.79810453 14.75229396 146.25800286 11.6015625 148.19140625 C8.4140625 148.94140625 8.4140625 148.94140625 4.6015625 149.19140625 C3.89386719 149.24296875 3.18617188 149.29453125 2.45703125 149.34765625 C-6.30003777 149.69619631 -17.44961684 148.84326134 -24.8359375 143.75390625 C-27.69361675 140.83011103 -27.8807384 138.13432224 -28.0234375 134.12890625 C-27.89357036 129.54223489 -26.83166066 127.03063435 -24.3984375 123.19140625 C-23.97113589 118.6620092 -24.62117523 114.91546269 -25.83203125 110.5546875 C-26.53073937 107.63938811 -26.92460788 104.72308389 -27.3359375 101.75390625 C-28.01892946 97.07514243 -29.05375406 92.92644522 -30.6796875 88.50390625 C-31.54141604 85.73138832 -31.96788417 82.99926177 -32.3984375 80.12890625 C-33.04726674 75.8766617 -33.99490788 72.22976376 -35.62890625 68.26953125 C-36.52275295 65.85569144 -37.07702732 63.45140435 -37.6484375 60.94140625 C-39.23854444 54.23902 -41.56643693 47.84221457 -43.97363281 41.39746094 C-45.8471848 36.2599094 -46.93486376 31.64419234 -47.3984375 26.19140625 C-47.48867187 25.36511719 -47.57890625 24.53882813 -47.671875 23.6875 C-47.90803399 18.90073897 -47.35392278 15.49844002 -44.24609375 11.75 C-33.12684197 2.37033518 -13.86323034 0.78080263 0 0 Z " fill="#000000" transform="translate(282.3984375,333.80859375)"/>
<path d="M0 0 C6.38174176 2.99864974 10.37524526 7.00040594 14 13 C15.08000804 14.10741942 16.18694581 15.18890486 17.3125 16.25 C20.82518298 19.65782677 23.52618345 23.35940014 26.24609375 27.41796875 C27.37560309 29.08078762 28.55290273 30.7126033 29.78515625 32.30078125 C38.80232803 44.09246743 42.17821185 57.63044721 42.1875 72.25 C42.19974609 73.24902344 42.21199219 74.24804688 42.22460938 75.27734375 C42.24552153 85.94254165 40.62110586 94.39696666 34 103 C26.91223731 109.8340954 17.39651574 115.35935968 7.45703125 115.21484375 C-0.91190893 114.48306043 -10.11776242 110.13745786 -16.5859375 104.91015625 C-19.40849858 102.6876998 -21.57749539 101.12605722 -25 100 C-31.34443584 101.405413 -36.60406584 104.40271056 -42 108 C-44.6875 108.125 -44.6875 108.125 -47 108 C-49.67433044 103.33842007 -49.22555775 99.24421764 -49 94 C-48.95875 92.9584375 -48.9175 91.916875 -48.875 90.84375 C-48.51330978 84.5141711 -47.58098316 78.81768326 -45.75390625 72.75390625 C-44.94633035 69.80395283 -44.45486398 66.89850763 -44 63.875 C-43.31609119 59.44669044 -42.24360347 55.48612756 -40.71875 51.28515625 C-39.89469445 48.66519702 -39.44240708 46.08474334 -39 43.375 C-38.24243952 38.87346293 -36.95670195 35.14820813 -35 31 C-34.53209945 29.73265795 -34.07422762 28.46158059 -33.625 27.1875 C-30.64494012 19.22008602 -27.12798931 11.99667526 -21 6 C-20.43796875 5.41863281 -19.8759375 4.83726562 -19.296875 4.23828125 C-13.55617046 -0.93558902 -7.4552163 -1.49104326 0 0 Z " fill="#000000" transform="translate(338,479)"/>
<path d="M0 0 C4.32896321 2.70038219 6.5596636 4.86198124 8.0546875 9.828125 C8.68149332 15.91182858 9.05798087 24.32590814 6.0546875 29.828125 C-0.41542818 33.68003208 -6.23462741 33.3078724 -13.5703125 33.265625 C-15.38208984 33.2955957 -15.38208984 33.2955957 -17.23046875 33.32617188 C-26.48835087 33.32118916 -35.10951263 32.05199158 -42.9453125 26.828125 C-42.9453125 26.168125 -42.9453125 25.508125 -42.9453125 24.828125 C-43.61433594 24.58578125 -44.28335937 24.3434375 -44.97265625 24.09375 C-48.664233 22.52204058 -52.05306638 20.6095293 -55.5078125 18.578125 C-56.16716797 18.20816406 -56.82652344 17.83820312 -57.50585938 17.45703125 C-61.97076856 14.82744654 -64.47698404 12.41216358 -66.9453125 7.828125 C-66.8828125 5.578125 -66.8828125 5.578125 -65.9453125 3.828125 C-62.28977914 1.39110276 -60.67034048 1.63131434 -56.328125 1.73828125 C-54.98437927 1.75874591 -53.64062906 1.77891807 -52.296875 1.79882812 C-50.19967888 1.84181142 -48.10278027 1.88977645 -46.00585938 1.94458008 C-37.59811561 2.14834942 -29.9948952 1.67605777 -21.79052734 -0.46655273 C-14.80930245 -2.19718245 -6.75898455 -2.68925115 0 0 Z " fill="#000000" transform="translate(536.9453125,554.171875)"/>
</svg>
